<svg xmlns="http://www.w3.org/2000/svg" width="100" height="100" fill="none"><path fill="#FFF" d="M17.455.001q.855.001 1.71-.001l2.869.002q1.649.002 3.296 0 1.426-.003 2.853-.001L29.877 0c4.908-.009 9.663.277 13.44 3.8 3.563 3.783 3.692 8.773 3.682 13.655q-.001.855.001 1.71l-.002 2.869q-.002 1.649 0 3.296.003 1.426.001 2.853L47 29.877c.009 4.908-.277 9.663-3.8 13.44-3.783 3.563-8.773 3.692-13.655 3.682q-.855-.001-1.71.001l-2.869-.002q-1.649-.002-3.296 0-1.427.003-2.853.001L17.123 47c-4.908.009-9.663-.277-13.44-3.8C.12 39.417-.009 34.427.001 29.545q.001-.855-.001-1.71l.002-2.869q.002-1.649 0-3.296-.003-1.427-.001-2.853L0 17.123c-.009-4.908.277-9.663 3.8-13.44C7.583.12 12.573-.009 17.455.001m53 0q.855.001 1.71-.001l2.869.002q1.649.002 3.296 0 1.426-.003 2.853-.001L82.877 0c4.908-.009 9.663.277 13.44 3.8 3.563 3.783 3.692 8.773 3.682 13.655q-.001.855.001 1.71l-.002 2.869q-.002 1.649 0 3.296.003 1.426.001 2.853l.001 1.694c.009 4.908-.277 9.663-3.8 13.44-3.783 3.563-8.773 3.692-13.655 3.682q-.855-.001-1.71.001l-2.869-.002q-1.649-.002-3.296 0-1.426.003-2.853.001L70.123 47c-4.908.009-9.663-.277-13.44-3.8-3.563-3.783-3.692-8.773-3.682-13.655q.001-.855-.001-1.71l.002-2.869q.002-1.649 0-3.296-.003-1.427-.001-2.853L53 17.123c-.009-4.908.277-9.663 3.8-13.44C60.583.12 65.573-.009 70.455.001m0 53q.855.001 1.71-.001l2.869.002q1.649.002 3.296 0 1.426-.003 2.853-.001L82.877 53c4.908-.009 9.663.277 13.44 3.8 3.563 3.783 3.692 8.773 3.682 13.655q-.001.855.001 1.71l-.002 2.869q-.002 1.649 0 3.296.003 1.426.001 2.853l.001 1.694c.009 4.908-.277 9.663-3.8 13.44-3.783 3.563-8.773 3.692-13.655 3.682q-.855-.001-1.71.001l-2.869-.002q-1.649-.002-3.296 0-1.426.003-2.853.001l-1.694.001c-4.908.009-9.663-.277-13.44-3.8-3.563-3.783-3.692-8.773-3.682-13.655q.001-.855-.001-1.71l.002-2.869q.002-1.649 0-3.296-.003-1.426-.001-2.853L53 70.123c-.009-4.908.277-9.663 3.8-13.44 3.783-3.563 8.773-3.692 13.655-3.682m-53 0q.855.001 1.71-.001l2.869.002q1.649.002 3.296 0 1.426-.003 2.853-.001L29.877 53c4.908-.009 9.663.277 13.44 3.8 3.563 3.783 3.692 8.773 3.682 13.655q-.001.855.001 1.71l-.002 2.869q-.002 1.649 0 3.296.003 1.426.001 2.853L47 82.877c.009 4.908-.277 9.663-3.8 13.44-3.783 3.563-8.773 3.692-13.655 3.682q-.855-.001-1.71.001l-2.869-.002q-1.649-.002-3.296 0-1.427.003-2.853.001l-1.694.001c-4.908.009-9.663-.277-13.44-3.8C.12 92.417-.009 87.427.001 82.545q.001-.855-.001-1.71l.002-2.869q.002-1.649 0-3.296-.003-1.426-.001-2.853L0 70.123c-.009-4.908.277-9.663 3.8-13.44 3.783-3.563 8.773-3.692 13.655-3.682"/></svg>